<svg width="126" height="32" viewBox="0 0 126 32" fill="none" xmlns="http://www.w3.org/2000/svg">
<path fill-rule="evenodd" clip-rule="evenodd" d="M13.5972 3.47409C10.7533 3.47409 8.40315 4.39082 6.54729 6.22442C4.69115 8.05774 3.76343 10.3674 3.76343 13.1538C3.76343 15.8678 4.69727 18.127 6.56552 19.93C8.43334 21.733 10.7773 22.635 13.5972 22.635C16.3812 22.635 18.7251 21.7126 20.6292 19.8662C22.5334 18.0214 23.4854 15.7473 23.4854 13.0453C23.4854 10.2829 22.5513 7.99681 20.6835 6.18741C18.8153 4.37802 16.4534 3.47409 13.5972 3.47409ZM26.6339 27.267L22.9999 30.7949C21.8669 30.7346 20.6826 30.533 19.4471 30.189C18.2115 29.8455 16.9581 29.3716 15.6865 28.7684C14.4146 28.1653 12.7182 27.1344 10.5966 25.6746C7.52237 25.1197 4.98783 23.6603 2.99284 21.296C0.997287 18.9318 0 16.2057 0 13.1177C0 9.34222 1.2839 6.21804 3.85141 3.74514C6.41892 1.27237 9.66776 0.0356445 13.5972 0.0356445C17.5029 0.0356445 20.7484 1.26375 23.3344 3.71815C25.92 6.17255 27.2128 9.25763 27.2128 12.9728C27.2128 16.0971 26.2365 18.8416 24.2836 21.2059C22.3304 23.5701 19.8047 25.0595 16.7069 25.6746L17.6651 26.0366C20.6428 27.1825 22.7885 27.7552 24.1025 27.7552C24.8256 27.7552 25.6693 27.5927 26.6339 27.267Z" fill="#008C99"/>
<path fill-rule="evenodd" clip-rule="evenodd" d="M40.7681 25.6746V23.5395C40.0686 24.3051 39.2693 24.9006 38.371 25.3262C37.472 25.7512 36.5764 25.9641 35.6839 25.9641C34.6344 25.9641 33.6666 25.7016 32.7797 25.1772C31.8934 24.6521 31.2235 23.9405 30.7715 23.0421C30.3189 22.1439 30.0928 20.651 30.0928 18.5635V9.02832H33.3859V18.5152C33.3859 20.2621 33.636 21.4826 34.137 22.1752C34.6373 22.8676 35.5145 23.2138 36.7695 23.2138C38.3372 23.2138 39.6704 22.4483 40.7681 20.9163V9.02832H44.0612V25.6746H40.7681Z" fill="#008C99"/>
<mask id="mask0_692_27722" style="mask-type:luminance" maskUnits="userSpaceOnUse" x="47" y="0" width="15" height="26">
<path fill-rule="evenodd" clip-rule="evenodd" d="M47.7496 0H61.9895V25.964H47.7496V0Z" fill="white"/>
</mask>
<g mask="url(#mask0_692_27722)">
<path fill-rule="evenodd" clip-rule="evenodd" d="M58.7145 0L54.6254 5.42817H52.5989L55.0416 0H58.7145ZM56.308 22.3815V17.4423L54.1006 18.2924C52.9787 18.7388 52.1855 19.1879 51.7213 19.6405C51.2566 20.0925 51.0246 20.6567 51.0246 21.332C51.0246 22.0197 51.2447 22.581 51.6853 23.0152C52.1252 23.4494 52.6952 23.6666 53.3949 23.6666C54.4444 23.6666 55.415 23.238 56.308 22.3815ZM59.5468 15.6684V22.7435C59.5468 23.3103 59.7395 23.5941 60.1258 23.5941C60.5239 23.5941 61.1451 23.2983 61.9895 22.7072V24.7154C61.2413 25.1985 60.6413 25.5271 60.1894 25.7015C59.7367 25.876 59.2634 25.9641 58.7689 25.9641C57.3574 25.9641 56.5253 25.4092 56.2718 24.2994C54.8723 25.3852 53.383 25.9279 51.8026 25.9279C50.6447 25.9279 49.6795 25.5454 48.9078 24.7793C48.1357 24.0129 47.7496 23.0507 47.7496 21.8927C47.7496 20.8439 48.1264 19.9059 48.8803 19.0794C49.6343 18.2533 50.705 17.5991 52.0922 17.1158L56.3081 15.6684V14.7822C56.3081 12.7798 55.3065 11.7786 53.3044 11.7786C51.5069 11.7786 49.7581 12.7075 48.0573 14.5651V10.9642C49.3356 9.4571 51.1754 8.70273 53.5759 8.70273C55.3731 8.70273 56.8147 9.17327 57.9003 10.1139C58.2622 10.4156 58.5879 10.8172 58.8774 11.3175C59.1668 11.8176 59.3506 12.3186 59.4295 12.8189C59.5074 13.3198 59.5468 14.2699 59.5468 15.6684Z" fill="#008C99"/>
</g>
<mask id="mask1_692_27722" style="mask-type:luminance" maskUnits="userSpaceOnUse" x="0" y="0" width="126" height="32">
<path fill-rule="evenodd" clip-rule="evenodd" d="M0 31.6704H125.398V0H0V31.6704Z" fill="white"/>
</mask>
<g mask="url(#mask1_692_27722)">
<path fill-rule="evenodd" clip-rule="evenodd" d="M64.3735 25.6747H67.6666V0.397461H64.3735V25.6747Z" fill="#008C99"/>
<path fill-rule="evenodd" clip-rule="evenodd" d="M72.8766 25.6745H76.1697V9.02825H72.8766V25.6745ZM74.5049 2.02637C75.0478 2.02637 75.5118 2.21308 75.8982 2.58692C76.2841 2.96091 76.4771 3.4192 76.4771 3.96209C76.4771 4.49273 76.2841 4.95117 75.8982 5.33725C75.5118 5.7232 75.0478 5.91618 74.5049 5.91618C73.9984 5.91618 73.552 5.72042 73.166 5.32793C72.7797 4.93628 72.587 4.48063 72.587 3.96209C72.587 3.45538 72.7797 3.00626 73.166 2.61378C73.552 2.22226 73.9984 2.02637 74.5049 2.02637Z" fill="#008C99"/>
<path fill-rule="evenodd" clip-rule="evenodd" d="M78.6106 11.6698L84.7987 5.59033V9.02811H90.0639V11.9955H84.7987V20.1425C84.7987 22.0449 85.5884 22.9964 87.1691 22.9964C88.3511 22.9964 89.5995 22.6047 90.9145 21.8199V24.8966C89.6478 25.6084 88.2662 25.9638 86.7709 25.9638C85.2628 25.9638 84.0086 25.5238 83.0075 24.6426C82.6935 24.378 82.4345 24.0791 82.2294 23.7471C82.0239 23.4157 81.8523 22.9815 81.7136 22.4443C81.5749 21.908 81.5058 20.8855 81.5058 19.3776V11.9955H78.6106V11.6698Z" fill="#008C99"/>
<path fill-rule="evenodd" clip-rule="evenodd" d="M101.138 22.3814V17.4422L98.9309 18.2922C97.809 18.7385 97.0158 19.1878 96.5517 19.6404C96.087 20.0924 95.8549 20.6566 95.8549 21.3319C95.8549 22.0195 96.0749 22.5809 96.5155 23.0151C96.9555 23.4493 97.5256 23.6664 98.2253 23.6664C99.2746 23.6664 100.245 23.2379 101.138 22.3814ZM104.377 15.6683V22.7434C104.377 23.3102 104.57 23.594 104.956 23.594C105.354 23.594 105.975 23.2983 106.82 22.7071V24.7152C106.072 25.1984 105.472 25.5268 105.019 25.7015C104.567 25.8759 104.094 25.964 103.599 25.964C102.188 25.964 101.355 25.4091 101.102 24.2993C99.7026 25.3851 98.2132 25.9278 96.633 25.9278C95.475 25.9278 94.5096 25.5454 93.7381 24.779C92.966 24.0128 92.58 23.0506 92.58 21.8925C92.58 20.8439 92.9567 19.9058 93.7107 19.0793C94.4646 18.2532 95.5354 17.5991 96.9225 17.1157L101.138 15.6683V14.7821C101.138 12.7797 100.137 11.7785 98.1347 11.7785C96.337 11.7785 94.5884 12.7074 92.8876 14.5649V10.9641C94.1659 9.45686 96.0058 8.70264 98.4062 8.70264C100.203 8.70264 101.645 9.17304 102.73 10.1138C103.093 10.4155 103.418 10.8171 103.708 11.3175C103.997 11.8175 104.181 12.3185 104.26 12.8188C104.338 13.3197 104.377 14.2698 104.377 15.6683Z" fill="#008C99"/>
<path fill-rule="evenodd" clip-rule="evenodd" d="M108.427 24.4803V20.934C109.356 21.5853 110.306 22.1131 111.277 22.517C112.248 22.9215 113.065 23.123 113.728 23.123C114.416 23.123 115.007 22.9547 115.502 22.6164C115.996 22.2793 116.243 21.8748 116.243 21.4044C116.243 20.9219 116.083 20.5209 115.764 20.2009C115.444 19.8816 114.754 19.4206 113.692 18.8174C111.569 17.6352 110.179 16.6249 109.522 15.7862C108.864 14.9481 108.536 14.0343 108.536 13.0452C108.536 11.7664 109.033 10.7234 110.029 9.91516C111.023 9.10709 112.305 8.70264 113.873 8.70264C115.502 8.70264 117.172 9.16107 118.885 10.0777V13.3347C116.931 12.1525 115.332 11.5615 114.09 11.5615C113.451 11.5615 112.935 11.6977 112.543 11.9694C112.151 12.2404 111.955 12.6002 111.955 13.0464C111.955 13.4334 112.133 13.8022 112.488 14.1521C112.843 14.5026 113.467 14.924 114.36 15.4186L115.536 16.0877C118.312 17.6558 119.7 19.3922 119.7 21.2973C119.7 22.6596 119.166 23.7785 118.098 24.6527C117.03 25.5268 115.658 25.964 113.982 25.964C112.993 25.964 112.112 25.8583 111.34 25.6476C110.568 25.4368 109.597 25.0473 108.427 24.4803Z" fill="#008C99"/>
<path fill-rule="evenodd" clip-rule="evenodd" d="M122.62 28.6584C122.802 28.6584 122.941 28.6206 123.039 28.545C123.137 28.4697 123.186 28.3617 123.186 28.2227C123.186 28.0843 123.135 27.9779 123.032 27.9048C122.929 27.8318 122.792 27.7948 122.62 27.7948H121.935V28.6584H122.62ZM122.836 27.3443C123.114 27.3443 123.34 27.4208 123.514 27.5734C123.687 27.7261 123.774 27.9253 123.774 28.1709C123.774 28.4064 123.699 28.6037 123.547 28.7627C123.396 28.9216 123.193 29.0111 122.941 29.031V29.0457C123.05 29.0827 123.149 29.1459 123.24 29.2338C123.331 29.3219 123.455 29.5014 123.614 29.7717L123.972 30.3748H123.287L123.145 30.1066C123.023 29.8589 122.909 29.6582 122.801 29.5057C122.693 29.3531 122.599 29.2501 122.52 29.197C122.44 29.143 122.33 29.1168 122.188 29.1168H121.935V30.3748H121.381V27.3443H122.836ZM120.252 28.8337C120.252 29.2558 120.357 29.6453 120.567 30.0029C120.777 30.3598 121.058 30.6408 121.411 30.8438C121.763 31.0475 122.146 31.1496 122.561 31.1496C122.98 31.1496 123.37 31.0453 123.73 30.8367C124.09 30.628 124.373 30.3464 124.579 29.9916C124.785 29.6369 124.888 29.2509 124.888 28.8337C124.888 28.4214 124.783 28.0367 124.575 27.6792C124.367 27.3221 124.083 27.0398 123.726 26.8327C123.369 26.6255 122.98 26.522 122.561 26.522C122.149 26.522 121.765 26.6241 121.408 26.8285C121.052 27.0334 120.77 27.3166 120.563 27.6778C120.356 28.0389 120.252 28.4242 120.252 28.8337ZM119.731 28.8337C119.731 28.3299 119.855 27.8609 120.103 27.4265C120.352 26.9917 120.697 26.646 121.14 26.3892C121.584 26.1325 122.059 26.0039 122.568 26.0039C123.087 26.0039 123.565 26.1316 124.002 26.3857C124.438 26.6404 124.78 26.9866 125.027 27.4265C125.274 27.8659 125.398 28.3349 125.398 28.8337C125.398 29.3551 125.27 29.834 125.016 30.2705C124.762 30.7076 124.416 31.0503 123.979 31.298C123.542 31.5463 123.072 31.6704 122.568 31.6704C122.059 31.6704 121.584 31.5413 121.14 31.2829C120.697 31.0255 120.352 30.6806 120.103 30.2499C119.855 29.82 119.731 29.3474 119.731 28.8337Z" fill="#008C99"/>
</g>
</svg>
