<svg width="262" height="80" viewBox="0 0 262 80" fill="none" xmlns="http://www.w3.org/2000/svg">
<path fill-rule="evenodd" clip-rule="evenodd" d="M62.9096 52.9132C61.0935 53.2825 59.9675 54.2789 54.4181 55.9533C49.0443 57.3187 39.8016 56.9375 32.4065 53.7207C26.689 51.3413 18.0501 47.6464 18.0501 47.6464L11.9874 44.9428L10.7401 48.9147C10.7401 48.9147 20.2576 52.5221 27.8884 57.5721C31.3462 59.8601 40.9163 65.8719 40.9163 65.8719C40.9163 65.8719 45.4663 69.1868 47.5374 69.1743C49.3401 69.143 50.8531 67.2306 53.2561 64.9345C56.192 62.311 57.5338 60.8416 60.7298 58.217C62.8586 56.317 63.9433 55.3273 64.1993 54.868C64.8159 53.7609 63.9503 52.706 62.9096 52.9132Z" fill="#90288C"/>
<path fill-rule="evenodd" clip-rule="evenodd" d="M63.7062 27.5946C63.714 17.8899 57.1286 6.1193 37.9244 5.89604C20.9728 6.35531 12.1572 15.6268 12.1647 27.6132C12.6229 44.7207 28.0011 49.3106 37.9465 49.3084C54.2428 49.302 64.1491 39.8383 63.7062 27.5946ZM37.8878 45.0476C32.701 45.0492 24.4458 42.7011 24.4458 27.5522C24.4422 17.8899 28.2244 10.2776 37.8806 10.0466C48.6526 10.2674 51.324 17.5553 51.3287 27.5459C51.5595 37.4079 48.1072 45.2675 37.8878 45.0476Z" fill="#90288C"/>
<mask id="mask0_110_2808" style="mask-type:luminance" maskUnits="userSpaceOnUse" x="0" y="0" width="262" height="80">
<path fill-rule="evenodd" clip-rule="evenodd" d="M0 80H261.956V0H0V80Z" fill="white"/>
</mask>
<g mask="url(#mask0_110_2808)">
<path fill-rule="evenodd" clip-rule="evenodd" d="M0 79.9978H2.47777V77.5181H0V79.9978Z" fill="#90288C"/>
<path fill-rule="evenodd" clip-rule="evenodd" d="M6.0544 79.9978H8.53106V77.5181H6.0544V79.9978Z" fill="#90288C"/>
<path fill-rule="evenodd" clip-rule="evenodd" d="M12.1102 79.9978H14.5896V77.5181H12.1102V79.9978Z" fill="#90288C"/>
<path fill-rule="evenodd" clip-rule="evenodd" d="M18.1682 79.9978H20.6449V77.5181H18.1682V79.9978Z" fill="#90288C"/>
<path fill-rule="evenodd" clip-rule="evenodd" d="M24.2229 79.9978H26.7006V77.5181H24.2229V79.9978Z" fill="#90288C"/>
<path fill-rule="evenodd" clip-rule="evenodd" d="M30.2789 79.9978H32.7553V77.5181H30.2789V79.9978Z" fill="#90288C"/>
<path fill-rule="evenodd" clip-rule="evenodd" d="M36.3347 79.9978H38.8119V77.5181H36.3347V79.9978Z" fill="#90288C"/>
<path fill-rule="evenodd" clip-rule="evenodd" d="M42.3902 79.9978H44.8691V77.5181H42.3902V79.9978Z" fill="#90288C"/>
<path fill-rule="evenodd" clip-rule="evenodd" d="M48.446 79.9978H50.921V77.5181H48.446V79.9978Z" fill="#90288C"/>
<path fill-rule="evenodd" clip-rule="evenodd" d="M54.5018 79.9978H56.9785V77.5181H54.5018V79.9978Z" fill="#90288C"/>
<path fill-rule="evenodd" clip-rule="evenodd" d="M60.5557 79.9978H63.0362V77.5181H60.5557V79.9978Z" fill="#90288C"/>
<path fill-rule="evenodd" clip-rule="evenodd" d="M66.6139 79.9978H69.0898V77.5181H66.6139V79.9978Z" fill="#90288C"/>
<path fill-rule="evenodd" clip-rule="evenodd" d="M72.6634 80H75.1425V77.5233H72.6634V80Z" fill="#90288C"/>
<path fill-rule="evenodd" clip-rule="evenodd" d="M2.47057 72.6869H72.6836V2.47168H2.47057V72.6869ZM0 75.1564H75.153V0H0V75.1564Z" fill="#90288C"/>
<path fill-rule="evenodd" clip-rule="evenodd" d="M259.747 75.2275C260.083 75.2275 260.407 75.3123 260.729 75.4834C261.042 75.6549 261.292 75.8998 261.471 76.2136C261.647 76.5327 261.737 76.8693 261.737 77.2119C261.737 77.5571 261.649 77.8801 261.482 78.1972C261.299 78.5147 261.054 78.7582 260.738 78.936C260.424 79.1088 260.095 79.1964 259.751 79.1972C259.407 79.1955 259.076 79.1097 258.761 78.9352C258.446 78.7623 258.198 78.5147 258.024 78.2017C257.846 77.8842 257.762 77.5571 257.759 77.2119C257.757 76.8693 257.846 76.5369 258.024 76.2136C258.206 75.8998 258.453 75.6549 258.772 75.4843C259.088 75.3142 259.416 75.2275 259.747 75.2275ZM259.747 75.5585C259.468 75.5585 259.2 75.6297 258.939 75.7737C258.668 75.9161 258.46 76.1219 258.317 76.3873C258.169 76.6502 258.095 76.9288 258.095 77.2144C258.095 77.4983 258.168 77.7723 258.314 78.033C258.46 78.295 258.662 78.4994 258.929 78.6462C259.188 78.7903 259.463 78.864 259.748 78.8598C260.032 78.8615 260.307 78.7908 260.572 78.6462C260.839 78.4978 261.042 78.295 261.19 78.0321C261.33 77.7701 261.406 77.4967 261.406 77.2097C261.402 76.9272 261.328 76.6485 261.18 76.3856C261.036 76.1205 260.827 75.9139 260.561 75.7707C260.293 75.6297 260.025 75.561 259.747 75.5585Z" fill="#008C99"/>
<path fill-rule="evenodd" clip-rule="evenodd" d="M258.875 78.3075L258.872 76.1782L259.603 76.1829C259.855 76.1829 260.039 76.197 260.148 76.2377C260.259 76.2785 260.35 76.3466 260.418 76.4458C260.484 76.5422 260.517 76.6455 260.517 76.7566C260.517 76.91 260.463 77.0469 260.351 77.1643C260.238 77.2793 260.091 77.3435 259.905 77.3574C259.983 77.3903 260.042 77.4264 260.089 77.4723C260.174 77.5546 260.281 77.6948 260.404 77.8887L260.667 78.3083L260.243 78.3075L260.051 77.9718C259.902 77.7089 259.783 77.5452 259.692 77.4787C259.629 77.4264 259.537 77.4053 259.417 77.4045H259.212V78.3067L258.875 78.3075ZM259.212 77.1078L259.637 77.1103C259.839 77.1103 259.975 77.0776 260.046 77.0189C260.123 76.961 260.158 76.8787 260.158 76.7832C260.158 76.7192 260.145 76.6632 260.11 76.6142C260.075 76.564 260.022 76.5272 259.957 76.5009C259.896 76.4787 259.779 76.4654 259.608 76.4649H259.212V77.1078Z" fill="#008C99"/>
<path fill-rule="evenodd" clip-rule="evenodd" d="M91.6278 73.0983V74.5892C90.6337 75.1315 89.4858 75.4027 88.1844 75.4027C87.1268 75.4027 86.2302 75.1902 85.4939 74.7662C84.7568 74.341 84.1737 73.7557 83.7444 73.01C83.3153 72.2643 83.1006 71.4574 83.1006 70.5904C83.1006 69.212 83.5923 68.0528 84.5754 67.1132C85.5579 66.1733 86.7701 65.7033 88.2116 65.7033C89.2057 65.7033 90.3107 65.9628 91.5262 66.4825V67.9403C90.419 67.3074 89.3368 66.991 88.2797 66.991C87.195 66.991 86.2945 67.3331 85.5784 68.0176C84.8621 68.7023 84.5039 69.5602 84.5039 70.5904C84.5039 71.6297 84.8565 72.4834 85.5612 73.1524C86.2662 73.8213 87.1676 74.1554 88.2656 74.1554C89.4135 74.1554 90.5342 73.8036 91.6278 73.0983Z" fill="#008C99"/>
<path fill-rule="evenodd" clip-rule="evenodd" d="M99.1483 66.977C98.0647 66.977 97.1742 67.3166 96.4764 67.9941C95.7792 68.6717 95.4299 69.5373 95.4299 70.5905C95.4299 71.6115 95.78 72.4608 96.48 73.1391C97.1797 73.8167 98.0556 74.1555 99.1076 74.1555C100.164 74.1555 101.046 73.8098 101.752 73.1189C102.459 72.4272 102.812 71.5661 102.812 70.5359C102.812 69.5329 102.459 68.6891 101.752 68.0044C101.046 67.3196 100.177 66.977 99.1483 66.977ZM99.0941 65.69C100.557 65.69 101.775 66.1529 102.749 67.0786C103.722 68.0052 104.208 69.1664 104.208 70.563C104.208 71.9591 103.717 73.1148 102.734 74.0305C101.753 74.9452 100.514 75.4028 99.0198 75.4028C97.5924 75.4028 96.4033 74.9452 95.4532 74.0305C94.5028 73.1148 94.0275 71.9685 94.0275 70.5905C94.0275 69.1755 94.5058 68.0052 95.4631 67.0786C96.4207 66.1529 97.6307 65.69 99.0941 65.69Z" fill="#008C99"/>
<path fill-rule="evenodd" clip-rule="evenodd" d="M114.559 65.8252H115.826V75.2941H114.464V67.9262L111.552 71.5868H111.302L108.357 67.9262V75.2941H107.001V65.8252H108.284L111.431 69.7142L114.559 65.8252Z" fill="#008C99"/>
<path fill-rule="evenodd" clip-rule="evenodd" d="M121.71 67.0176H120.307V69.9801H121.79C122.342 69.9801 122.767 69.8504 123.065 69.5906C123.363 69.3308 123.512 68.9591 123.512 68.4754C123.512 67.5037 122.911 67.0176 121.71 67.0176ZM118.944 75.2941V65.8118H121.947C122.851 65.8118 123.571 66.055 124.109 66.5433C124.647 67.032 124.916 67.6868 124.916 68.5092C124.916 69.0607 124.778 69.5482 124.502 69.9732C124.226 70.3981 123.849 70.7061 123.37 70.8989C122.891 71.0906 122.205 71.187 121.31 71.187H120.307V75.2941H118.944Z" fill="#008C99"/>
<path fill-rule="evenodd" clip-rule="evenodd" d="M131.151 71.2816L129.623 67.8518L128.206 71.2816H131.151ZM129.159 65.771H130.112L134.357 75.294H132.97L131.708 72.4879H127.668L126.485 75.294H125.092L129.159 65.771Z" fill="#008C99"/>
<path fill-rule="evenodd" clip-rule="evenodd" d="M143.129 63.2491C143.124 63.7962 142.998 64.2236 142.749 64.5302C142.559 64.7696 142.322 64.8892 142.038 64.8892C141.789 64.8892 141.455 64.7995 141.034 64.6183C140.614 64.4377 140.298 64.3471 140.086 64.3471C139.968 64.3471 139.866 64.3926 139.78 64.4831C139.694 64.5732 139.643 64.7092 139.625 64.8892H139.055C139.127 64.2524 139.258 63.8266 139.448 63.6123C139.638 63.397 139.878 63.2898 140.167 63.2898C140.429 63.2898 140.856 63.4095 141.448 63.6488C141.75 63.7712 141.968 63.8319 142.099 63.8319C142.225 63.8319 142.333 63.7881 142.421 63.7001C142.508 63.6123 142.569 63.4621 142.6 63.2491H143.129ZM144.071 65.8252H145.359V75.2939H144.192L137.862 68.0013V75.2939H136.588V65.8252H137.686L144.071 73.1799V65.8252Z" fill="#008C99"/>
<path fill-rule="evenodd" clip-rule="evenodd" d="M151.127 63.0936L149.596 65.1273H148.836L149.751 63.0936H151.127ZM148.551 75.2941H149.907V65.8251H148.551V75.2941Z" fill="#008C99"/>
<path fill-rule="evenodd" clip-rule="evenodd" d="M158.176 71.2816L156.647 67.8518L155.231 71.2816H158.176ZM156.184 65.771H157.137L161.382 75.294H159.995L158.733 72.4879H154.693L153.51 75.294H152.116L156.184 65.771Z" fill="#008C99"/>
<path fill-rule="evenodd" clip-rule="evenodd" d="M171.645 67.0319H169.95V74.0744H171.685C172.363 74.0744 172.89 74.0281 173.264 73.935C173.639 73.8425 173.953 73.7251 174.203 73.5827C174.454 73.4406 174.683 73.2653 174.891 73.0578C175.56 72.3794 175.895 71.5232 175.895 70.4886C175.895 69.4717 175.551 68.6429 174.864 68.0006C174.611 67.761 174.321 67.5646 173.993 67.4111C173.665 67.2577 173.355 67.156 173.061 67.1061C172.767 67.0568 172.295 67.0319 171.645 67.0319ZM168.594 75.2807V65.8253H171.787C173.075 65.8253 174.094 66.0186 174.844 66.4042C175.594 66.7909 176.19 67.3596 176.634 68.1094C177.076 68.8598 177.298 69.6775 177.298 70.5631C177.298 71.1952 177.176 71.801 176.931 72.3794C176.688 72.9586 176.34 73.4664 175.888 73.9046C175.427 74.3566 174.891 74.6979 174.281 74.9278C173.924 75.0688 173.596 75.1619 173.298 75.2095C173 75.2572 172.431 75.2807 171.59 75.2807H168.594Z" fill="#008C99"/>
<path fill-rule="evenodd" clip-rule="evenodd" d="M180.144 65.8252H185.513V67.0318H181.5V69.9189H185.378V71.1328H181.5V74.0742H185.641V75.2809H180.144V65.8252Z" fill="#008C99"/>
<path fill-rule="evenodd" clip-rule="evenodd" d="M195.592 71.3268L194.561 70.7008C193.915 70.3063 193.455 69.9185 193.182 69.5365C192.908 69.1545 192.772 68.7149 192.772 68.218C192.772 67.4723 193.031 66.8665 193.548 66.4012C194.065 65.9355 194.738 65.7031 195.565 65.7031C196.355 65.7031 197.081 65.9253 197.74 66.369V67.9072C197.058 67.2516 196.324 66.923 195.538 66.923C195.094 66.923 194.731 67.0255 194.447 67.2305C194.161 67.4355 194.019 67.6975 194.019 68.0169C194.019 68.3003 194.124 68.5662 194.334 68.8136C194.543 69.0615 194.881 69.3213 195.346 69.5936L196.381 70.2063C197.536 70.8955 198.113 71.7744 198.113 72.8403C198.113 73.6001 197.859 74.2167 197.351 74.691C196.843 75.1657 196.181 75.4028 195.368 75.4028C194.433 75.4028 193.581 75.1159 192.812 74.5408V72.8184C193.545 73.7461 194.392 74.2095 195.355 74.2095C195.779 74.2095 196.133 74.0913 196.415 73.8552C196.698 73.6187 196.839 73.3231 196.839 72.9669C196.839 72.3905 196.423 71.8439 195.592 71.3268Z" fill="#008C99"/>
<path fill-rule="evenodd" clip-rule="evenodd" d="M200.756 65.8252H206.125V67.0318H202.113V69.9189H205.99V71.1328H202.113V74.0742H206.254V75.2809H200.756V65.8252Z" fill="#008C99"/>
<path fill-rule="evenodd" clip-rule="evenodd" d="M213.968 70.6313H217.147V74.6436C215.981 75.1494 214.824 75.4029 213.676 75.4029C212.108 75.4029 210.855 74.945 209.918 74.0304C208.98 73.1149 208.511 71.9866 208.511 70.6446C208.511 69.2297 208.997 68.0527 209.969 67.1131C210.94 66.1732 212.158 65.7032 213.622 65.7032C214.155 65.7032 214.661 65.7611 215.14 65.876C215.619 65.991 216.225 66.2023 216.957 66.5098V67.8923C215.827 67.2375 214.707 66.9095 213.595 66.9095C212.56 66.9095 211.688 67.2618 210.978 67.9668C210.269 68.6718 209.914 69.5374 209.914 70.5631C209.914 71.6385 210.269 72.5179 210.978 73.1999C211.688 73.8824 212.601 74.2237 213.717 74.2237C214.259 74.2237 214.908 74.0993 215.663 73.8503L215.791 73.8099V71.8371H213.968V70.6313Z" fill="#008C99"/>
<path fill-rule="evenodd" clip-rule="evenodd" d="M226.867 65.8252H228.229V71.2001C228.229 71.9278 228.176 72.4773 228.07 72.8474C227.963 73.218 227.833 73.5266 227.676 73.7729C227.521 74.0186 227.33 74.2393 227.104 74.4332C226.354 75.0797 225.373 75.4027 224.162 75.4027C222.928 75.4027 221.939 75.082 221.193 74.4404C220.967 74.2418 220.776 74.0186 220.62 73.7729C220.464 73.5266 220.335 73.2244 220.233 72.8676C220.133 72.5108 220.082 71.9505 220.082 71.1868V65.8252H221.444V71.2001C221.444 72.0906 221.546 72.7097 221.749 73.0576C221.952 73.405 222.262 73.6845 222.678 73.8942C223.093 74.1047 223.584 74.2097 224.149 74.2097C224.953 74.2097 225.608 74 226.114 73.5795C226.381 73.3535 226.573 73.0867 226.69 72.779C226.808 72.4723 226.867 71.9458 226.867 71.2001V65.8252Z" fill="#008C99"/>
<path fill-rule="evenodd" clip-rule="evenodd" d="M233.062 66.977H232.655V69.9669H233.171C233.857 69.9669 234.328 69.9082 234.584 69.7899C234.839 69.6725 235.037 69.496 235.18 69.2578C235.322 69.021 235.393 68.7509 235.393 68.4481C235.393 68.1498 235.314 67.88 235.156 67.6382C234.998 67.3964 234.776 67.2257 234.488 67.1266C234.202 67.0271 233.726 66.977 233.062 66.977ZM231.3 75.2939V65.8252H233.672C234.63 65.8252 235.39 66.0623 235.952 66.5363C236.515 67.0113 236.796 67.6529 236.796 68.462C236.796 69.0132 236.659 69.4894 236.383 69.8916C236.108 70.2941 235.712 70.5946 235.197 70.7929C235.499 70.9927 235.796 71.2636 236.085 71.607C236.374 71.9505 236.781 72.5491 237.305 73.4028C237.635 73.9413 237.899 74.3457 238.098 74.6164L238.6 75.2939H236.986L236.573 74.6704C236.56 74.6477 236.533 74.6095 236.492 74.5554L236.228 74.1823L235.809 73.4906L235.355 72.7511C235.075 72.3619 234.818 72.053 234.586 71.8228C234.353 71.5929 234.142 71.427 233.954 71.3253C233.767 71.2237 233.451 71.1724 233.008 71.1724H232.655V75.2939H231.3Z" fill="#008C99"/>
<path fill-rule="evenodd" clip-rule="evenodd" d="M244.663 66.977C243.579 66.977 242.689 67.3166 241.991 67.9941C241.294 68.6717 240.945 69.5373 240.945 70.5905C240.945 71.6115 241.295 72.4608 241.995 73.1391C242.695 73.8167 243.57 74.1555 244.622 74.1555C245.679 74.1555 246.56 73.8098 247.267 73.1189C247.973 72.4272 248.327 71.5661 248.327 70.5359C248.327 69.5329 247.973 68.6891 247.267 68.0044C246.56 67.3196 245.692 66.977 244.663 66.977ZM244.609 65.69C246.072 65.69 247.29 66.1529 248.263 67.0786C249.237 68.0052 249.723 69.1664 249.723 70.563C249.723 71.9591 249.232 73.1148 248.25 74.0305C247.267 74.9452 246.028 75.4028 244.534 75.4028C243.107 75.4028 241.918 74.9452 240.967 74.0305C240.017 73.1148 239.542 71.9685 239.542 70.5905C239.542 69.1755 240.02 68.0052 240.978 67.0786C241.935 66.1529 243.145 65.69 244.609 65.69Z" fill="#008C99"/>
<path fill-rule="evenodd" clip-rule="evenodd" d="M254.888 71.3268L253.858 70.7008C253.211 70.3063 252.752 69.9185 252.478 69.5365C252.204 69.1545 252.068 68.7149 252.068 68.218C252.068 67.4723 252.327 66.8665 252.844 66.4012C253.361 65.9355 254.034 65.7031 254.861 65.7031C255.651 65.7031 256.377 65.9253 257.036 66.369V67.9072C256.354 67.2516 255.62 66.923 254.834 66.923C254.391 66.923 254.027 67.0255 253.743 67.2305C253.458 67.4355 253.315 67.6975 253.315 68.0169C253.315 68.3003 253.42 68.5662 253.63 68.8136C253.84 69.0615 254.177 69.3213 254.642 69.5936L255.677 70.2063C256.832 70.8955 257.409 71.7744 257.409 72.8403C257.409 73.6001 257.156 74.2167 256.647 74.691C256.138 75.1657 255.478 75.4028 254.664 75.4028C253.729 75.4028 252.877 75.1159 252.109 74.5408V72.8184C252.841 73.7461 253.688 74.2095 254.651 74.2095C255.076 74.2095 255.429 74.0913 255.711 73.8552C255.994 73.6187 256.135 73.3231 256.135 72.9669C256.135 72.3905 255.719 71.8439 254.888 71.3268Z" fill="#008C99"/>
<path fill-rule="evenodd" clip-rule="evenodd" d="M102.773 17.275C98.5061 17.275 94.9805 18.6503 92.1961 21.4012C89.4111 24.1521 88.0192 27.6171 88.0192 31.7976C88.0192 35.8692 89.4202 39.2589 92.2232 41.9638C95.0256 44.6687 98.5424 46.0218 102.773 46.0218C106.949 46.0218 110.466 44.6379 113.323 41.8682C116.18 39.1001 117.608 35.6883 117.608 31.6347C117.608 27.4902 116.207 24.0604 113.404 21.3458C110.601 18.6312 107.058 17.275 102.773 17.275ZM122.332 52.9712L116.88 58.2639C115.179 58.1736 113.403 57.8711 111.549 57.355C109.695 56.8398 107.815 56.1285 105.907 55.2238C103.999 54.3188 101.454 52.7721 98.2707 50.5824C93.6586 49.75 89.8562 47.5603 86.8632 44.013C83.8691 40.466 82.3728 36.3761 82.3728 31.7433C82.3728 26.0789 84.2993 21.3915 88.1513 17.6816C92.0033 13.9717 96.8774 12.1161 102.773 12.1161C108.632 12.1161 113.502 13.959 117.381 17.6412C121.261 21.3233 123.2 25.952 123.2 31.5261C123.2 36.2132 121.735 40.3309 118.805 43.8781C115.875 47.4248 112.086 49.6594 107.438 50.5824L108.876 51.1253C113.343 52.8446 116.562 53.7033 118.534 53.7033C119.619 53.7033 120.884 53.4596 122.332 52.9712Z" fill="#008C99"/>
<path fill-rule="evenodd" clip-rule="evenodd" d="M143.537 50.5823V47.3793C142.487 48.5278 141.288 49.4211 139.94 50.0596C138.592 50.6972 137.248 51.0166 135.909 51.0166C134.335 51.0166 132.882 50.6227 131.552 49.836C130.222 49.0483 129.217 47.9804 128.539 46.6328C127.86 45.2852 127.521 43.0454 127.521 39.9136V25.6082H132.462V39.8413C132.462 42.462 132.837 44.293 133.588 45.332C134.339 46.371 135.655 46.8904 137.538 46.8904C139.89 46.8904 141.89 45.7417 143.537 43.4437V25.6082H148.477V50.5823H143.537Z" fill="#008C99"/>
<path fill-rule="evenodd" clip-rule="evenodd" d="M170.462 12.0631L164.327 20.2066H161.286L164.951 12.0631H170.462ZM166.851 45.6417V38.2316L163.539 39.5069C161.856 40.1765 160.666 40.8501 159.97 41.5293C159.273 42.2077 158.925 43.0539 158.925 44.0675C158.925 45.0988 159.255 45.9408 159.916 46.5923C160.576 47.2438 161.431 47.5696 162.481 47.5696C164.055 47.5696 165.511 46.9267 166.851 45.6417ZM171.71 35.5702V46.1846C171.71 47.0353 171.999 47.4613 172.579 47.4613C173.176 47.4613 174.108 47.0173 175.375 46.1306V49.1432C174.252 49.8681 173.352 50.3609 172.674 50.623C171.995 50.8847 171.285 51.0166 170.543 51.0166C168.426 51.0166 167.177 50.1842 166.797 48.5191C164.697 50.1479 162.463 50.9623 160.092 50.9623C158.355 50.9623 156.906 50.3886 155.748 49.2388C154.59 48.0892 154.011 46.6455 154.011 44.9084C154.011 43.3351 154.577 41.9276 155.708 40.6872C156.839 39.4482 158.445 38.4668 160.526 37.7419L166.851 35.5702V34.2406C166.851 31.2365 165.349 29.7344 162.345 29.7344C159.648 29.7344 157.025 31.1279 154.473 33.9148V28.5122C156.391 26.2513 159.151 25.1195 162.752 25.1195C165.449 25.1195 167.611 25.8253 169.24 27.2369C169.783 27.6895 170.272 28.292 170.706 29.0424C171.14 29.7928 171.416 30.5446 171.534 31.295C171.651 32.0465 171.71 33.4719 171.71 35.5702Z" fill="#008C99"/>
<path fill-rule="evenodd" clip-rule="evenodd" d="M178.952 50.5823H183.892V12.6592H178.952V50.5823Z" fill="#008C99"/>
<path fill-rule="evenodd" clip-rule="evenodd" d="M191.709 50.5823H196.649V25.6082H191.709V50.5823ZM194.152 15.1035C194.966 15.1035 195.662 15.3832 196.242 15.9444C196.821 16.5054 197.111 17.1932 197.111 18.0073C197.111 18.8036 196.821 19.4914 196.242 20.0706C195.662 20.6496 194.966 20.939 194.152 20.939C193.392 20.939 192.722 20.6454 192.143 20.0568C191.563 19.469 191.274 18.7856 191.274 18.0073C191.274 17.2474 191.563 16.5735 192.143 15.9849C192.722 15.3974 193.392 15.1035 194.152 15.1035Z" fill="#008C99"/>
<path fill-rule="evenodd" clip-rule="evenodd" d="M200.312 29.5715L209.595 20.4507V25.6082H217.495V30.0601H209.595V42.283C209.595 45.1373 210.78 46.5646 213.152 46.5646C214.925 46.5646 216.798 45.9771 218.771 44.7999V49.4155C216.87 50.4834 214.798 51.0166 212.554 51.0166C210.292 51.0166 208.41 50.3568 206.908 49.0344C206.437 48.6374 206.048 48.189 205.741 47.6912C205.432 47.194 205.175 46.5425 204.967 45.7367C204.759 44.9317 204.655 43.398 204.655 41.1357V30.0601H200.312V29.5715Z" fill="#008C99"/>
<path fill-rule="evenodd" clip-rule="evenodd" d="M234.11 45.6417V38.2317L230.798 39.507C229.115 40.1765 227.924 40.8502 227.228 41.5294C226.531 42.2078 226.183 43.054 226.183 44.0673C226.183 45.0988 226.513 45.9409 227.174 46.5924C227.834 47.2439 228.69 47.5697 229.739 47.5697C231.314 47.5697 232.77 46.9267 234.11 45.6417ZM238.969 35.5703V46.1846C238.969 47.0353 239.258 47.4611 239.837 47.4611C240.434 47.4611 241.366 47.0173 242.633 46.1306V49.1433C241.511 49.8682 240.611 50.361 239.932 50.6228C239.253 50.8848 238.543 51.0166 237.801 51.0166C235.684 51.0166 234.435 50.184 234.055 48.5192C231.955 50.148 229.721 50.9624 227.35 50.9624C225.613 50.9624 224.165 50.3887 223.007 49.2389C221.849 48.0893 221.27 46.6456 221.27 44.9085C221.27 43.3351 221.835 41.9277 222.966 40.6873C224.097 39.4483 225.703 38.4669 227.785 37.7417L234.11 35.5703V34.2407C234.11 31.2366 232.607 29.7344 229.603 29.7344C226.906 29.7344 224.283 31.128 221.731 33.9149V28.5123C223.649 26.2514 226.409 25.1196 230.011 25.1196C232.707 25.1196 234.87 25.8254 236.498 27.237C237.041 27.6893 237.53 28.2921 237.964 29.0425C238.399 29.7929 238.674 30.5446 238.793 31.295C238.91 32.0465 238.969 33.472 238.969 35.5703Z" fill="#008C99"/>
<path fill-rule="evenodd" clip-rule="evenodd" d="M245.045 48.7907V43.4701C246.438 44.4473 247.863 45.2395 249.32 45.8451C250.777 46.452 252.003 46.7542 252.999 46.7542C254.03 46.7542 254.916 46.5018 255.659 45.9941C256.401 45.4886 256.772 44.8819 256.772 44.1759C256.772 43.4521 256.532 42.8507 256.052 42.3704C255.572 41.8914 254.536 41.1995 252.944 40.2945C249.759 38.5212 247.673 37.0051 246.687 35.747C245.7 34.4897 245.208 33.1186 245.208 31.6347C245.208 29.7164 245.954 28.1514 247.447 26.9389C248.94 25.7265 250.863 25.1196 253.216 25.1196C255.659 25.1196 258.165 25.8074 260.735 27.1827V32.069C257.803 30.2954 255.405 29.4087 253.542 29.4087C252.582 29.4087 251.808 29.6131 251.22 30.0209C250.632 30.4275 250.338 30.9671 250.338 31.6366C250.338 32.2169 250.604 32.7706 251.137 33.2953C251.67 33.8213 252.607 34.4534 253.946 35.1955L255.711 36.1994C259.874 38.5519 261.957 41.1568 261.957 44.0152C261.957 46.0592 261.155 47.7378 259.554 49.0494C257.952 50.361 255.894 51.0167 253.378 51.0167C251.894 51.0167 250.573 50.858 249.415 50.5419C248.257 50.2258 246.8 49.6411 245.045 48.7907Z" fill="#008C99"/>
</g>
</svg>
