<svg width="118" height="36" viewBox="0 0 118 36" fill="none" xmlns="http://www.w3.org/2000/svg">
<path fill-rule="evenodd" clip-rule="evenodd" d="M28.5932 23.8109C27.7822 23.9771 27.2794 24.4255 24.8012 25.179C22.4015 25.7934 18.274 25.6219 14.9716 24.1743C12.4183 23.1035 8.56055 21.4408 8.56055 21.4408L5.85316 20.2242L5.29614 22.0116C5.29614 22.0116 9.54631 23.6349 12.954 25.9074C14.4981 26.937 18.7718 29.6423 18.7718 29.6423C18.7718 29.6423 20.8036 31.134 21.7285 31.1284C22.5336 31.1143 23.2092 30.2537 24.2823 29.2205C25.5934 28.0399 26.1926 27.3787 27.6198 26.1976C28.5704 25.3426 29.0548 24.8973 29.1691 24.6906C29.4445 24.1924 29.0579 23.7177 28.5932 23.8109Z" fill="#90288C"/>
<path fill-rule="evenodd" clip-rule="evenodd" d="M28.949 12.4176C28.9525 8.05043 26.0116 2.75367 17.4357 2.6532C9.86575 2.85987 5.92904 7.03204 5.93238 12.4259C6.13697 20.1243 13.0044 22.1898 17.4456 22.1888C24.723 22.1859 29.1468 17.9272 28.949 12.4176ZM17.4194 20.2714C15.1032 20.2721 11.4167 19.2155 11.4167 12.3985C11.4151 8.05043 13.1041 4.62492 17.4162 4.52096C22.2266 4.6203 23.4195 7.89985 23.4216 12.3956C23.5247 16.8335 21.983 20.3704 17.4194 20.2714Z" fill="#90288C"/>
<mask id="mask0_419_1439" style="mask-type:luminance" maskUnits="userSpaceOnUse" x="0" y="0" width="118" height="36">
<path fill-rule="evenodd" clip-rule="evenodd" d="M0.5 36H117.481V0H0.5V36Z" fill="white"/>
</mask>
<g mask="url(#mask0_419_1439)">
<path fill-rule="evenodd" clip-rule="evenodd" d="M0.5 35.9991H1.60649V34.8832H0.5V35.9991Z" fill="#90288C"/>
<path fill-rule="evenodd" clip-rule="evenodd" d="M3.20374 35.9991H4.30973V34.8832H3.20374V35.9991Z" fill="#90288C"/>
<path fill-rule="evenodd" clip-rule="evenodd" d="M5.90796 35.9991H7.01519V34.8832H5.90796V35.9991Z" fill="#90288C"/>
<path fill-rule="evenodd" clip-rule="evenodd" d="M8.61328 35.9991H9.71927V34.8832H8.61328V35.9991Z" fill="#90288C"/>
<path fill-rule="evenodd" clip-rule="evenodd" d="M11.3171 35.9991H12.4236V34.8832H11.3171V35.9991Z" fill="#90288C"/>
<path fill-rule="evenodd" clip-rule="evenodd" d="M14.0215 35.9991H15.1274V34.8832H14.0215V35.9991Z" fill="#90288C"/>
<path fill-rule="evenodd" clip-rule="evenodd" d="M16.7258 35.9991H17.8321V34.8832H16.7258V35.9991Z" fill="#90288C"/>
<path fill-rule="evenodd" clip-rule="evenodd" d="M19.4299 35.9991H20.5369V34.8832H19.4299V35.9991Z" fill="#90288C"/>
<path fill-rule="evenodd" clip-rule="evenodd" d="M22.1343 35.9991H23.2395V34.8832H22.1343V35.9991Z" fill="#90288C"/>
<path fill-rule="evenodd" clip-rule="evenodd" d="M24.8386 35.9991H25.9446V34.8832H24.8386V35.9991Z" fill="#90288C"/>
<path fill-rule="evenodd" clip-rule="evenodd" d="M27.542 35.9991H28.6497V34.8832H27.542V35.9991Z" fill="#90288C"/>
<path fill-rule="evenodd" clip-rule="evenodd" d="M30.2474 35.9991H31.3531V34.8832H30.2474V35.9991Z" fill="#90288C"/>
<path fill-rule="evenodd" clip-rule="evenodd" d="M32.9489 36H34.056V34.8855H32.9489V36Z" fill="#90288C"/>
<path fill-rule="evenodd" clip-rule="evenodd" d="M1.60327 32.7091H32.9579V1.11225H1.60327V32.7091ZM0.5 33.8204H34.0607V0H0.5V33.8204Z" fill="#90288C"/>
<path fill-rule="evenodd" clip-rule="evenodd" d="M116.494 33.8524C116.644 33.8524 116.789 33.8906 116.933 33.9676C117.072 34.0448 117.184 34.1549 117.264 34.2962C117.343 34.4398 117.383 34.5912 117.383 34.7454C117.383 34.9007 117.343 35.0461 117.269 35.1888C117.187 35.3316 117.078 35.4412 116.936 35.5212C116.796 35.599 116.649 35.6384 116.496 35.6388C116.342 35.638 116.195 35.5994 116.054 35.5209C115.913 35.4431 115.802 35.3316 115.724 35.1908C115.645 35.0479 115.607 34.9007 115.606 34.7454C115.605 34.5912 115.645 34.4416 115.724 34.2962C115.806 34.1549 115.916 34.0448 116.059 33.968C116.2 33.8914 116.346 33.8524 116.494 33.8524ZM116.494 34.0014C116.369 34.0014 116.25 34.0334 116.133 34.0982C116.012 34.1623 115.919 34.2549 115.856 34.3743C115.789 34.4926 115.756 34.618 115.756 34.7465C115.756 34.8743 115.789 34.9976 115.854 35.1149C115.919 35.2328 116.01 35.3248 116.129 35.3908C116.244 35.4557 116.367 35.4888 116.495 35.487C116.621 35.4877 116.744 35.4559 116.862 35.3908C116.982 35.324 117.072 35.2328 117.138 35.1145C117.201 34.9966 117.235 34.8736 117.235 34.7444C117.233 34.6173 117.2 34.4919 117.134 34.3736C117.069 34.2543 116.976 34.1613 116.858 34.0969C116.738 34.0334 116.618 34.0025 116.494 34.0014Z" fill="#008C99"/>
<path fill-rule="evenodd" clip-rule="evenodd" d="M116.105 35.2383L116.103 34.2802L116.43 34.2823C116.542 34.2823 116.624 34.2886 116.673 34.307C116.722 34.3253 116.763 34.3559 116.794 34.4006C116.823 34.4439 116.838 34.4904 116.838 34.5404C116.838 34.6095 116.814 34.6711 116.764 34.7239C116.713 34.7756 116.648 34.8046 116.564 34.8108C116.599 34.8256 116.626 34.8418 116.647 34.8625C116.685 34.8995 116.732 34.9626 116.787 35.0499L116.905 35.2387L116.715 35.2383L116.63 35.0873C116.563 34.969 116.51 34.8953 116.469 34.8654C116.441 34.8418 116.4 34.8324 116.347 34.832H116.255V35.238L116.105 35.2383ZM116.255 34.6985L116.445 34.6996C116.535 34.6996 116.596 34.6849 116.627 34.6585C116.662 34.6324 116.677 34.5954 116.677 34.5524C116.677 34.5236 116.671 34.4984 116.656 34.4764C116.64 34.4538 116.617 34.4372 116.588 34.4254C116.56 34.4154 116.508 34.4094 116.432 34.4092H116.255V34.6985Z" fill="#008C99"/>
<path fill-rule="evenodd" clip-rule="evenodd" d="M41.4178 32.8942V33.5651C40.9739 33.8091 40.4612 33.9312 39.8801 33.9312C39.4078 33.9312 39.0074 33.8356 38.6786 33.6447C38.3495 33.4534 38.0891 33.19 37.8973 32.8544C37.7057 32.5189 37.6099 32.1558 37.6099 31.7656C37.6099 31.1454 37.8294 30.6237 38.2684 30.2009C38.7072 29.7779 39.2485 29.5664 39.8922 29.5664C40.3362 29.5664 40.8296 29.6832 41.3724 29.917V30.5731C40.878 30.2883 40.3947 30.1459 39.9227 30.1459C39.4383 30.1459 39.0361 30.2998 38.7163 30.6079C38.3965 30.916 38.2365 31.302 38.2365 31.7656C38.2365 32.2333 38.394 32.6175 38.7087 32.9185C39.0235 33.2195 39.426 33.3699 39.9163 33.3699C40.429 33.3699 40.9294 33.2116 41.4178 32.8942Z" fill="#008C99"/>
<path fill-rule="evenodd" clip-rule="evenodd" d="M44.7762 30.1397C44.2923 30.1397 43.8946 30.2925 43.583 30.5974C43.2716 30.9023 43.1157 31.2918 43.1157 31.7657C43.1157 32.2252 43.272 32.6074 43.5846 32.9126C43.8971 33.2175 44.2882 33.37 44.758 33.37C45.2298 33.37 45.6234 33.2144 45.939 32.9035C46.2545 32.5923 46.4122 32.2048 46.4122 31.7412C46.4122 31.2898 46.2545 30.9101 45.939 30.602C45.6234 30.2939 45.2357 30.1397 44.7762 30.1397ZM44.752 29.5605C45.4052 29.5605 45.9492 29.7688 46.384 30.1854C46.8185 30.6024 47.0358 31.1249 47.0358 31.7534C47.0358 32.3816 46.8166 32.9017 46.3776 33.3138C45.9395 33.7254 45.3862 33.9313 44.7188 33.9313C44.0814 33.9313 43.5503 33.7254 43.1261 33.3138C42.7016 32.9017 42.4894 32.3859 42.4894 31.7657C42.4894 31.129 42.703 30.6024 43.1305 30.1854C43.5581 29.7688 44.0985 29.5605 44.752 29.5605Z" fill="#008C99"/>
<path fill-rule="evenodd" clip-rule="evenodd" d="M51.658 29.6213H52.224V33.8824H51.6155V30.5668L50.3153 32.2141H50.2036L48.8883 30.5668V33.8824H48.2827V29.6213H48.8558L50.2612 31.3714L51.658 29.6213Z" fill="#008C99"/>
<path fill-rule="evenodd" clip-rule="evenodd" d="M54.8512 30.158H54.2247V31.4911H54.8873C55.1338 31.4911 55.3235 31.4328 55.4566 31.3158C55.5897 31.1989 55.6563 31.0316 55.6563 30.814C55.6563 30.3767 55.388 30.158 54.8512 30.158ZM53.6162 33.8824V29.6154H54.9571C55.3607 29.6154 55.6825 29.7248 55.9228 29.9446C56.1628 30.1644 56.283 30.4591 56.283 30.8292C56.283 31.0774 56.2213 31.2968 56.0983 31.488C55.9751 31.6792 55.8068 31.8178 55.5929 31.9046C55.3789 31.9908 55.0723 32.0342 54.6727 32.0342H54.2247V33.8824H53.6162Z" fill="#008C99"/>
<path fill-rule="evenodd" clip-rule="evenodd" d="M59.0675 32.0767L58.3852 30.5333L57.7524 32.0767H59.0675ZM58.178 29.5969H58.6032L60.4993 33.8823H59.8799L59.3161 32.6196H57.512L56.9837 33.8823H56.3616L58.178 29.5969Z" fill="#008C99"/>
<path fill-rule="evenodd" clip-rule="evenodd" d="M64.4163 28.4622C64.4143 28.7083 64.3578 28.9007 64.2468 29.0387C64.1621 29.1464 64.0562 29.2002 63.929 29.2002C63.8179 29.2002 63.6686 29.1598 63.481 29.0783C63.2933 28.997 63.1521 28.9563 63.0573 28.9563C63.0047 28.9563 62.9593 28.9767 62.9209 29.0175C62.8824 29.058 62.8596 29.1192 62.8515 29.2002H62.5972C62.6294 28.9136 62.6879 28.7221 62.7727 28.6256C62.8574 28.5287 62.9644 28.4805 63.0936 28.4805C63.2106 28.4805 63.4013 28.5343 63.6657 28.642C63.8007 28.6971 63.8977 28.7244 63.9562 28.7244C64.0125 28.7244 64.0608 28.7047 64.1001 28.6651C64.1393 28.6256 64.1661 28.558 64.1803 28.4622H64.4163ZM64.8372 29.6214H65.4122V33.8823H64.8913L62.0644 30.6007V33.8823H61.4952V29.6214H61.9858L64.8372 32.931V29.6214Z" fill="#008C99"/>
<path fill-rule="evenodd" clip-rule="evenodd" d="M67.988 28.3921L67.3042 29.3073H66.9649L67.3735 28.3921H67.988ZM66.8379 33.8823H67.4433V29.6213H66.8379V33.8823Z" fill="#008C99"/>
<path fill-rule="evenodd" clip-rule="evenodd" d="M71.1357 32.0767L70.4533 30.5333L69.8207 32.0767H71.1357ZM70.2463 29.5969H70.6717L72.5678 33.8823H71.9482L71.3846 32.6196H69.5805L69.0521 33.8823H68.4299L70.2463 29.5969Z" fill="#008C99"/>
<path fill-rule="evenodd" clip-rule="evenodd" d="M77.1505 30.1643H76.3937V33.3334H77.1686C77.4712 33.3334 77.7064 33.3126 77.8738 33.2707C78.0411 33.2291 78.1812 33.1762 78.2931 33.1122C78.4052 33.0482 78.5075 32.9693 78.6002 32.876C78.899 32.5707 79.0484 32.1854 79.0484 31.7198C79.0484 31.2622 78.8949 30.8893 78.5882 30.6002C78.4752 30.4924 78.3456 30.404 78.1993 30.335C78.0529 30.2659 77.9141 30.2202 77.7831 30.1977C77.6518 30.1755 77.4411 30.1643 77.1505 30.1643ZM75.7883 33.8763V29.6213H77.2141C77.789 29.6213 78.2442 29.7083 78.5791 29.8819C78.9141 30.0559 79.1804 30.3118 79.3783 30.6492C79.576 30.9869 79.6749 31.3548 79.6749 31.7534C79.6749 32.0378 79.6204 32.3104 79.5112 32.5707C79.4026 32.8313 79.2471 33.0598 79.0453 33.257C78.8395 33.4604 78.6002 33.614 78.3277 33.7175C78.1685 33.7809 78.0221 33.8228 77.889 33.8442C77.7558 33.8657 77.5017 33.8763 77.126 33.8763H75.7883Z" fill="#008C99"/>
<path fill-rule="evenodd" clip-rule="evenodd" d="M80.946 29.6213H83.3435V30.1643H81.5517V31.4635H83.2831V32.0098H81.5517V33.3334H83.401V33.8764H80.946V29.6213Z" fill="#008C99"/>
<path fill-rule="evenodd" clip-rule="evenodd" d="M87.8443 32.0971L87.3843 31.8153C87.0957 31.6378 86.8904 31.4633 86.7683 31.2914C86.6461 31.1195 86.5852 30.9217 86.5852 30.6981C86.5852 30.3625 86.7009 30.0899 86.9318 29.8805C87.1628 29.671 87.463 29.5664 87.8323 29.5664C88.1853 29.5664 88.5093 29.6664 88.8039 29.8661V30.5582C88.499 30.2632 88.1713 30.1154 87.8202 30.1154C87.6223 30.1154 87.46 30.1615 87.333 30.2537C87.2057 30.346 87.1421 30.4639 87.1421 30.6076C87.1421 30.7351 87.189 30.8548 87.2826 30.9661C87.3763 31.0777 87.5269 31.1946 87.7345 31.3171L88.1968 31.5928C88.7126 31.903 88.9704 32.2985 88.9704 32.7781C88.9704 33.1201 88.8568 33.3975 88.6299 33.6109C88.403 33.8246 88.1076 33.9313 87.7445 33.9313C87.327 33.9313 86.9465 33.8021 86.6033 33.5434V32.7683C86.9302 33.1858 87.3086 33.3943 87.7384 33.3943C87.9282 33.3943 88.086 33.3411 88.2121 33.2349C88.3383 33.1284 88.4014 32.9954 88.4014 32.8351C88.4014 32.5757 88.2156 32.3298 87.8443 32.0971Z" fill="#008C99"/>
<path fill-rule="evenodd" clip-rule="evenodd" d="M90.1508 29.6213H92.5482V30.1643H90.7564V31.4635H92.4878V32.0098H90.7564V33.3334H92.6057V33.8764H90.1508V29.6213Z" fill="#008C99"/>
<path fill-rule="evenodd" clip-rule="evenodd" d="M96.0505 31.7841H97.4703V33.5896C96.9494 33.8172 96.433 33.9313 95.9204 33.9313C95.2201 33.9313 94.6606 33.7252 94.242 33.3136C93.8232 32.9017 93.6139 32.394 93.6139 31.79C93.6139 31.1533 93.8307 30.6237 94.2647 30.2009C94.6984 29.7779 95.2424 29.5664 95.8963 29.5664C96.1343 29.5664 96.3603 29.5925 96.5741 29.6442C96.788 29.6959 97.0584 29.791 97.3855 29.9294V30.5515C96.8809 30.2568 96.3805 30.1093 95.884 30.1093C95.4219 30.1093 95.0325 30.2678 94.7156 30.585C94.3989 30.9023 94.2404 31.2918 94.2404 31.7534C94.2404 32.2373 94.3989 32.6331 94.7156 32.9399C95.0325 33.2471 95.4401 33.4006 95.9386 33.4006C96.1806 33.4006 96.4702 33.3447 96.8074 33.2326L96.8648 33.2144V32.3267H96.0505V31.7841Z" fill="#008C99"/>
<path fill-rule="evenodd" clip-rule="evenodd" d="M101.811 29.6213H102.419V32.0401C102.419 32.3675 102.395 32.6148 102.348 32.7813C102.3 32.9481 102.242 33.087 102.172 33.1978C102.103 33.3084 102.018 33.4077 101.917 33.495C101.582 33.7859 101.144 33.9312 100.603 33.9312C100.052 33.9312 99.6102 33.7869 99.2772 33.4982C99.1762 33.4088 99.0908 33.3084 99.0212 33.1978C98.9517 33.087 98.8939 32.951 98.8485 32.7904C98.8035 32.6299 98.7808 32.3777 98.7808 32.0341V29.6213H99.3891V32.0401C99.3891 32.4408 99.4346 32.7194 99.5254 32.876C99.6161 33.0323 99.7543 33.158 99.9402 33.2524C100.126 33.3471 100.345 33.3944 100.597 33.3944C100.956 33.3944 101.249 33.3 101.475 33.1108C101.594 33.0091 101.68 32.889 101.732 32.7506C101.785 32.6126 101.811 32.3756 101.811 32.0401V29.6213Z" fill="#008C99"/>
<path fill-rule="evenodd" clip-rule="evenodd" d="M104.577 30.1396H104.395V31.4851H104.626C104.932 31.4851 105.143 31.4587 105.257 31.4055C105.371 31.3526 105.459 31.2732 105.523 31.166C105.587 31.0594 105.618 30.9379 105.618 30.8017C105.618 30.6674 105.583 30.546 105.513 30.4372C105.442 30.3284 105.343 30.2516 105.214 30.2069C105.086 30.1622 104.874 30.1396 104.577 30.1396ZM103.79 33.8823V29.6213H104.85C105.277 29.6213 105.617 29.728 105.868 29.9413C106.119 30.1551 106.245 30.4438 106.245 30.8079C106.245 31.0559 106.183 31.2702 106.061 31.4512C105.937 31.6323 105.761 31.7676 105.531 31.8568C105.666 31.9467 105.798 32.0686 105.927 32.2232C106.056 32.3777 106.238 32.6471 106.472 33.0313C106.62 33.2736 106.737 33.4556 106.826 33.5774L107.05 33.8823H106.33L106.145 33.6017C106.139 33.5914 106.127 33.5742 106.109 33.5499L105.991 33.382L105.804 33.0708L105.601 32.738C105.476 32.5628 105.362 32.4238 105.258 32.3203C105.154 32.2168 105.06 32.1421 104.976 32.0964C104.892 32.0506 104.751 32.0276 104.553 32.0276H104.395V33.8823H103.79Z" fill="#008C99"/>
<path fill-rule="evenodd" clip-rule="evenodd" d="M109.758 30.1397C109.274 30.1397 108.876 30.2925 108.565 30.5974C108.253 30.9023 108.098 31.2918 108.098 31.7657C108.098 32.2252 108.254 32.6074 108.566 32.9126C108.879 33.2175 109.27 33.37 109.74 33.37C110.211 33.37 110.605 33.2144 110.921 32.9035C111.236 32.5923 111.394 32.2048 111.394 31.7412C111.394 31.2898 111.236 30.9101 110.921 30.602C110.605 30.2939 110.217 30.1397 109.758 30.1397ZM109.734 29.5605C110.387 29.5605 110.931 29.7688 111.366 30.1854C111.8 30.6024 112.017 31.1249 112.017 31.7534C112.017 32.3816 111.798 32.9017 111.36 33.3138C110.921 33.7254 110.368 33.9313 109.7 33.9313C109.063 33.9313 108.532 33.7254 108.108 33.3138C107.683 32.9017 107.471 32.3859 107.471 31.7657C107.471 31.129 107.685 30.6024 108.112 30.1854C108.54 29.7688 109.08 29.5605 109.734 29.5605Z" fill="#008C99"/>
<path fill-rule="evenodd" clip-rule="evenodd" d="M114.324 32.0971L113.864 31.8153C113.575 31.6378 113.37 31.4633 113.248 31.2914C113.126 31.1195 113.065 30.9217 113.065 30.6981C113.065 30.3625 113.18 30.0899 113.411 29.8805C113.642 29.671 113.943 29.5664 114.312 29.5664C114.665 29.5664 114.989 29.6664 115.283 29.8661V30.5582C114.979 30.2632 114.651 30.1154 114.3 30.1154C114.102 30.1154 113.94 30.1615 113.813 30.2537C113.685 30.346 113.622 30.4639 113.622 30.6076C113.622 30.7351 113.669 30.8548 113.762 30.9661C113.856 31.0777 114.007 31.1946 114.214 31.3171L114.676 31.5928C115.192 31.903 115.45 32.2985 115.45 32.7781C115.45 33.1201 115.337 33.3975 115.109 33.6109C114.882 33.8246 114.587 33.9313 114.224 33.9313C113.806 33.9313 113.426 33.8021 113.083 33.5434V32.7683C113.41 33.1858 113.788 33.3943 114.218 33.3943C114.408 33.3943 114.566 33.3411 114.692 33.2349C114.818 33.1284 114.881 32.9954 114.881 32.8351C114.881 32.5757 114.695 32.3298 114.324 32.0971Z" fill="#008C99"/>
<path fill-rule="evenodd" clip-rule="evenodd" d="M46.3947 7.77376C44.4894 7.77376 42.9149 8.39264 41.6715 9.63055C40.4279 10.8684 39.8063 12.4277 39.8063 14.3089C39.8063 16.1412 40.4319 17.6665 41.6836 18.8837C42.9351 20.1009 44.5056 20.7098 46.3947 20.7098C48.2598 20.7098 49.8303 20.0871 51.106 18.8407C52.3817 17.5951 53.0196 16.0598 53.0196 14.2356C53.0196 12.3706 52.3939 10.8272 51.1424 9.60562C49.8907 8.38404 48.3083 7.77376 46.3947 7.77376ZM55.129 23.8371L52.6943 26.2188C51.9351 26.1781 51.1416 26.042 50.314 25.8098C49.4861 25.5779 48.6464 25.2578 47.7945 24.8507C46.9423 24.4435 45.8057 23.7474 44.3842 22.7621C42.3246 22.3875 40.6266 21.4021 39.2901 19.8059C37.953 18.2097 37.2848 16.3693 37.2848 14.2845C37.2848 11.7355 38.1451 9.62619 39.8653 7.95674C41.5854 6.2873 43.762 5.45227 46.3947 5.45227C49.0114 5.45227 51.1858 6.28157 52.9183 7.93855C54.6507 9.59552 55.5169 11.6784 55.5169 14.1868C55.5169 16.296 54.8628 18.1489 53.5541 19.7452C52.2458 21.3412 50.5536 22.3467 48.478 22.7621L49.12 23.0064C51.1151 23.7801 52.5526 24.1665 53.4329 24.1665C53.9174 24.1665 54.4826 24.0568 55.129 23.8371Z" fill="#008C99"/>
<path fill-rule="evenodd" clip-rule="evenodd" d="M64.5985 22.762V21.3207C64.1297 21.8375 63.5942 22.2395 62.9924 22.5268C62.3902 22.8138 61.7902 22.9575 61.1921 22.9575C60.489 22.9575 59.8406 22.7802 59.2464 22.4262C58.6527 22.0717 58.2039 21.5912 57.901 20.9848C57.5978 20.3783 57.4464 19.3704 57.4464 17.9611V11.5237H59.6527V17.9286C59.6527 19.1079 59.8202 19.9318 60.1558 20.3994C60.491 20.867 61.0788 21.1007 61.9195 21.1007C62.9698 21.1007 63.8632 20.5838 64.5985 19.5497V11.5237H66.8047V22.762H64.5985Z" fill="#008C99"/>
<path fill-rule="evenodd" clip-rule="evenodd" d="M76.6222 5.42834L73.8825 9.09294H72.5248L74.1614 5.42834H76.6222ZM75.0099 20.5387V17.2042L73.531 17.7781C72.7794 18.0794 72.248 18.3825 71.9371 18.6881C71.6257 18.9934 71.4702 19.3742 71.4702 19.8303C71.4702 20.2944 71.6176 20.6733 71.9128 20.9665C72.2075 21.2597 72.5895 21.4063 73.0582 21.4063C73.7613 21.4063 74.4116 21.117 75.0099 20.5387ZM77.1799 16.0065V20.783C77.1799 21.1658 77.3089 21.3575 77.5678 21.3575C77.8345 21.3575 78.2506 21.1577 78.8164 20.7587V22.1144C78.315 22.4406 77.9131 22.6624 77.6103 22.7803C77.307 22.8981 76.99 22.9574 76.6586 22.9574C75.713 22.9574 75.1554 22.5828 74.9857 21.8336C74.0479 22.5665 73.0502 22.933 71.9914 22.933C71.2156 22.933 70.5689 22.6748 70.0518 22.1574C69.5347 21.6401 69.2761 20.9904 69.2761 20.2088C69.2761 19.5007 69.5285 18.8674 70.0335 18.3092C70.5387 17.7516 71.256 17.31 72.1854 16.9838L75.0099 16.0065V15.4082C75.0099 14.0564 74.339 13.3804 72.9976 13.3804C71.7933 13.3804 70.6217 14.0075 69.4821 15.2616V12.8305C70.3386 11.8131 71.5712 11.3037 73.1794 11.3037C74.3836 11.3037 75.3494 11.6213 76.0767 12.2566C76.3192 12.4602 76.5374 12.7314 76.7313 13.069C76.9253 13.4067 77.0484 13.745 77.1012 14.0827C77.1534 14.4209 77.1799 15.0623 77.1799 16.0065Z" fill="#008C99"/>
<path fill-rule="evenodd" clip-rule="evenodd" d="M80.4136 22.762H82.6199V5.69666H80.4136V22.762Z" fill="#008C99"/>
<path fill-rule="evenodd" clip-rule="evenodd" d="M86.1105 22.762H88.3167V11.5236H86.1105V22.762ZM87.2015 6.79651C87.5652 6.79651 87.876 6.92241 88.1349 7.17495C88.3934 7.42736 88.5228 7.73687 88.5228 8.10322C88.5228 8.46159 88.3934 8.77109 88.1349 9.03174C87.876 9.29226 87.5652 9.42252 87.2015 9.42252C86.8621 9.42252 86.5631 9.29039 86.3044 9.02551C86.0455 8.761 85.9165 8.45349 85.9165 8.10322C85.9165 7.7613 86.0455 7.45803 86.3044 7.19315C86.5631 6.92876 86.8621 6.79651 87.2015 6.79651Z" fill="#008C99"/>
<path fill-rule="evenodd" clip-rule="evenodd" d="M89.9521 13.3071L94.098 9.20276V11.5236H97.6256V13.527H94.098V19.0273C94.098 20.3117 94.6271 20.954 95.6861 20.954C96.478 20.954 97.3145 20.6897 98.1954 20.1599V22.2369C97.3467 22.7175 96.4212 22.9574 95.4194 22.9574C94.4089 22.9574 93.5686 22.6605 92.8979 22.0654C92.6875 21.8868 92.514 21.685 92.3766 21.461C92.239 21.2372 92.1241 20.9441 92.031 20.5815C91.9381 20.2192 91.8917 19.529 91.8917 18.511V13.527H89.9521V13.3071Z" fill="#008C99"/>
<path fill-rule="evenodd" clip-rule="evenodd" d="M105.045 20.5388V17.2043L103.566 17.7782C102.815 18.0795 102.283 18.3826 101.972 18.6882C101.661 18.9935 101.505 19.3743 101.505 19.8303C101.505 20.2945 101.653 20.6734 101.948 20.9666C102.243 21.2598 102.625 21.4064 103.093 21.4064C103.796 21.4064 104.447 21.1171 105.045 20.5388ZM107.215 16.0066V20.7831C107.215 21.1659 107.344 21.3575 107.603 21.3575C107.87 21.3575 108.286 21.1578 108.851 20.7588V22.1145C108.35 22.4407 107.948 22.6625 107.645 22.7803C107.342 22.8982 107.025 22.9575 106.694 22.9575C105.748 22.9575 105.191 22.5828 105.021 21.8337C104.083 22.5666 103.085 22.9331 102.027 22.9331C101.251 22.9331 100.604 22.6749 100.087 22.1575C99.5698 21.6402 99.3112 20.9905 99.3112 20.2089C99.3112 19.5008 99.5636 18.8675 100.069 18.3093C100.574 17.7517 101.291 17.3101 102.221 16.9838L105.045 16.0066V15.4083C105.045 14.0565 104.374 13.3805 103.033 13.3805C101.828 13.3805 100.657 14.0076 99.5172 15.2617V12.8305C100.374 11.8132 101.606 11.3038 103.215 11.3038C104.419 11.3038 105.385 11.6214 106.112 12.2567C106.354 12.4602 106.573 12.7315 106.766 13.0691C106.96 13.4068 107.084 13.7451 107.136 14.0828C107.189 14.421 107.215 15.0624 107.215 16.0066Z" fill="#008C99"/>
<path fill-rule="evenodd" clip-rule="evenodd" d="M109.928 21.9558V19.5615C110.551 20.0013 111.187 20.3578 111.838 20.6303C112.488 20.9034 113.036 21.0394 113.48 21.0394C113.941 21.0394 114.337 20.9258 114.668 20.6974C115 20.4699 115.165 20.1969 115.165 19.8792C115.165 19.5534 115.058 19.2828 114.844 19.0667C114.63 18.8512 114.167 18.5398 113.456 18.1326C112.033 17.3345 111.102 16.6523 110.662 16.0862C110.221 15.5204 110.001 14.9034 110.001 14.2356C110.001 13.3724 110.334 12.6681 111.001 12.1225C111.668 11.5769 112.527 11.3038 113.577 11.3038C114.668 11.3038 115.788 11.6133 116.935 12.2322V14.4311C115.626 13.6329 114.555 13.2339 113.723 13.2339C113.294 13.2339 112.949 13.3259 112.686 13.5094C112.423 13.6924 112.292 13.9352 112.292 14.2365C112.292 14.4976 112.411 14.7468 112.649 14.9829C112.887 15.2196 113.305 15.504 113.903 15.838L114.692 16.2897C116.551 17.3484 117.481 18.5206 117.481 19.8069C117.481 20.7266 117.123 21.482 116.408 22.0722C115.693 22.6625 114.773 22.9575 113.65 22.9575C112.987 22.9575 112.397 22.8861 111.88 22.7439C111.363 22.6016 110.712 22.3385 109.928 21.9558Z" fill="#008C99"/>
</g>
</svg>
